<?xml version="1.0" encoding="UTF-8" standalone="no"?><!DOCTYPE svg PUBLIC "-//W3C//DTD SVG 1.1//EN" "http://www.w3.org/Graphics/SVG/1.1/DTD/svg11.dtd"><svg width="100%" height="100%" viewBox="0 0 4 4" version="1.1" xmlns="http://www.w3.org/2000/svg" xmlns:xlink="http://www.w3.org/1999/xlink" xml:space="preserve" xmlns:serif="http://www.serif.com/" style="fill-rule:evenodd;clip-rule:evenodd;stroke-linejoin:round;stroke-miterlimit:2;"><rect x="0.243" y="0.24" width="0.24" height="0.24" style="fill:#990;"/><rect x="0.482" y="0.24" width="0.24" height="0.24" style="fill:#fff;"/><path d="M1.202,2.88l-0,0.718l0.24,-0l-0,-0.478l1.68,-0l-0,-0.24l-1.92,-0Z" style="fill:#fff;"/><path d="M1.442,1.44l-0,1.2l0.24,-0l-0,-0.96l0.96,-0l-0,-0.24l-1.2,-0Z" style="fill:#fff;"/><rect x="0.243" y="0.48" width="1.679" height="0.24" style="fill:#cc6;"/><rect x="3.121" y="0.72" width="0.24" height="0.481" style="fill:#cc6;"/><rect x="0.482" y="0" width="1.199" height="0.24" style="fill:#990;"/><rect x="0.722" y="0.24" width="0.48" height="0.24" style="fill:#ffc;"/><rect x="0.243" y="0.72" width="2.638" height="0.24" style="fill:#ffc;"/><rect x="0.243" y="0.959" width="0.24" height="1.679" style="fill:#ffc;"/><rect x="1.202" y="0.24" width="0.48" height="0.24" style="fill:#ff9;"/><rect x="2.881" y="0.72" width="0.24" height="0.24" style="fill:#ff9;"/><rect x="2.881" y="0.962" width="0.24" height="0.24" style="fill:#fc9;"/><rect x="2.401" y="0.962" width="0.24" height="0.24" style="fill:#fc9;"/><rect x="1.921" y="0.962" width="0.24" height="0.24" style="fill:#fc9;"/><rect x="1.442" y="0.962" width="0.24" height="0.24" style="fill:#fc9;"/><rect x="0.962" y="1.442" width="0.24" height="0.24" style="fill:#fc9;"/><rect x="1.202" y="1.202" width="0.24" height="0.24" style="fill:#fc9;"/><rect x="0.962" y="1.921" width="0.24" height="0.24" style="fill:#fc9;"/><rect x="0.962" y="2.401" width="0.24" height="0.24" style="fill:#fc9;"/><rect x="0.482" y="2.401" width="0.24" height="0.24" style="fill:#fc9;"/><rect x="2.641" y="0.959" width="0.24" height="0.24" style="fill:#ff9;"/><rect x="2.161" y="0.961" width="0.24" height="0.24" style="fill:#ff9;"/><rect x="1.682" y="0.962" width="0.24" height="0.24" style="fill:#ff9;"/><path d="M0.962,2.405l-0.24,-0l0,0.24l0.24,-0l0,-0.24Zm-0.48,-0.72l0,0.72l0.72,-0l-0,-0.24l-0.24,-0l0,-0.24l0.24,0l-0,-0.24l-0.72,0Zm0.48,-0.24l-0.48,0l0,0.24l0.48,0l0,-0.24Zm0.24,-0.241l-0.72,0l0,0.24l0.72,0l-0,-0.24Zm0.24,-0.241l-0.96,0l0,0.24l0.96,0l-0,-0.24Z" style="fill:#ff9;"/><rect x="1.682" y="0.24" width="0.24" height="0.24" style="fill:#990;"/><rect x="1.921" y="0.48" width="1.439" height="0.24" style="fill:#990;"/><rect x="3.121" y="1.2" width="0.24" height="0.24" style="fill:#990;"/><rect x="1.921" y="0.24" width="0.24" height="0.24"/><rect x="1.442" y="1.202" width="1.679" height="0.24"/><rect x="0.243" y="2.641" width="0.959" height="0.24" style="fill:#cc6;"/><rect x="0.243" y="2.881" width="0.959" height="0.24"/><rect x="0.003" y="0.48" width="0.24" height="2.401" style="fill:#990;"/><path d="M3.36,2.638l0,-0.24l0.24,0l0,-1.678l-0.24,-0l0,0.722l-0.239,-0l-0,1.196l0.239,0Z"/><rect x="3.36" y="3.36" width="0.24" height="0.237"/><rect x="3.598" y="2.404" width="0.24" height="0.957"/><rect x="2.881" y="1.439" width="0.24" height="1.199" style="fill:#868686;"/><path d="M3.36,2.878l-0.239,0l-0,0.72l0.239,-0l0,-0.72Zm-0.239,0.48l-1.679,-0l-0,0.24l1.679,-0l-0,-0.24Zm0.479,-0.72l-0.24,0l0,0.72l0.24,-0l0,-0.72Z" style="fill:#868686;"/><rect x="0.962" y="3.118" width="0.24" height="0.48" style="fill:#868686;"/><path d="M2.881,1.439l-0.24,0l-0,1.199l0.24,0l-0,-1.199Zm-0.24,0.959l-0.959,0l-0,0.24l0.959,0l-0,-0.24Z" style="fill:#c0c0c0;"/><rect x="3.36" y="2.398" width="0.24" height="0.24" style="fill:#c0c0c0;"/><rect x="3.121" y="2.638" width="0.24" height="0.24" style="fill:#c0c0c0;"/><rect x="1.442" y="3.118" width="1.679" height="0.24" style="fill:#c0c0c0;"/><rect x="1.921" y="1.919" width="0.72" height="0.48" style="fill:#00f;"/><path d="M1.682,2.398l-0,-0.719l0.959,-0l-0,0.24l-0.72,-0l0,0.479l-0.239,0Z" style="fill:#000080;"/><rect x="1.921" y="1.919" width="0.24" height="0.24" style="fill:#01ffff;"/><rect x="1.682" y="3.118" width="0.24" height="0.24" style="fill:#01ff00;"/><path d="M1.202,2.881l1.919,-0l-0,-0.24l-1.679,-0l-0,-1.199l-0.24,-0l-0,1.439Z"/><rect x="1.202" y="3.6" width="2.159" height="0.24"/><rect x="1.682" y="0" width="0.24" height="0.24"/></svg>